<?xml version="1.0" encoding="UTF-8"?>
<!DOCTYPE svg PUBLIC "-//W3C//DTD SVG 1.1//EN" "http://www.w3.org/Graphics/SVG/1.1/DTD/svg11.dtd">
<svg xmlns="http://www.w3.org/2000/svg" version="1.2" viewBox="0 0 18000 9000" fill="none" stroke="none">
	<path stroke="#000000" stroke-width="100" stroke-linejoin="round" d="M1160,7405L16964,7405,6522,914,1160,7405Z"/>
	<g fill="#000000">
		<path d="M9266,7960l-84,286l-9,35c-1,4,-1,7,-1,9c0,4,1,7,3,10c3,2,5,3,8,3c5,0,14,-4,24,-13c4,-4,14,-17,31,-40l15,8c-21,37,-42,64,-65,81c-23,17,-48,26,-75,26c-16,0,-29,-4,-37,-13c-9,-8,-13,-19,-13,-32c0,-11,5,-32,14,-62l11,-35c-34,57,-66,98,-97,121c-18,14,-37,21,-57,21c-26,0,-45,-11,-57,-32c-12,-22,-18,-47,-18,-74c0,-40,12,-87,37,-139c25,-52,58,-95,98,-126c34,-27,65,-40,94,-40c16,0,29,5,39,14c10,9,17,26,22,51l16,-53l101,-6z m-138,82c0,-23,-3,-40,-11,-50c-5,-7,-12,-11,-21,-11c-9,0,-18,4,-27,13c-20,18,-40,54,-63,108c-22,54,-33,101,-33,141c0,15,2,26,7,33c5,7,11,10,17,10c13,0,26,-7,39,-22c19,-22,36,-48,51,-78c27,-54,41,-102,41,-144z"/>
		<path d="M3486,3220l-77,260c22,-25,40,-41,54,-49c15,-8,31,-12,48,-12c33,0,57,12,74,37c16,25,24,54,24,86c0,78,-28,147,-83,208c-48,53,-104,80,-166,80c-47,0,-96,-14,-147,-42l133,-453c6,-22,10,-37,10,-46c0,-8,-3,-14,-9,-18c-9,-6,-22,-9,-40,-8l4,-17l148,-26l27,0z m-169,572c13,9,24,13,35,13c14,0,27,-3,36,-9c16,-10,32,-27,50,-53c17,-26,31,-56,43,-93c11,-36,17,-72,17,-108c0,-20,-4,-35,-13,-46c-8,-11,-18,-16,-30,-16c-18,0,-35,10,-49,30c-9,13,-19,41,-30,83l-59,199z"/>
		<path d="M11872,3454l13,12c-28,33,-55,57,-82,72c-36,21,-73,31,-112,31c-26,0,-49,-6,-69,-17c-20,-11,-34,-26,-44,-46c-9,-20,-14,-40,-14,-61c0,-47,13,-94,38,-139c26,-46,60,-82,102,-108c42,-27,83,-40,123,-40c33,0,57,7,73,21c17,15,25,33,25,54c0,19,-6,35,-19,49c-12,13,-26,20,-41,20c-13,0,-24,-4,-33,-13c-9,-8,-13,-19,-13,-30c0,-16,8,-29,23,-41c11,-8,16,-15,16,-21c0,-5,-2,-9,-6,-12c-6,-5,-13,-7,-23,-7c-24,0,-47,10,-68,29c-28,26,-50,59,-65,98c-15,40,-22,77,-22,113c0,28,8,50,23,67c15,17,33,25,54,25c19,0,39,-5,60,-14c21,-9,42,-23,61,-42z"/>
		<path d="M6693,2146l-181,0l-36,45l-42,49c-8,11,-14,21,-18,29c-3,7,-4,14,-4,20c0,7,4,14,11,20c7,6,19,9,36,10l0,15l-174,0l4,-15c16,-3,30,-8,42,-17c16,-11,39,-35,69,-71l415,-495l19,0l-20,479c-1,25,-1,40,-1,45c0,20,4,34,12,43c8,9,21,15,39,16l-4,15l-253,0l5,-15c25,-2,39,-4,43,-6c8,-4,15,-13,22,-26c7,-13,11,-35,12,-67l4,-74z m0,-37l11,-189l-161,189l150,0z"/>
		<path d="M14204,6356l232,0c51,0,88,3,110,8c29,7,52,21,68,41c16,20,24,42,24,68c0,20,-6,42,-19,63c-13,22,-32,40,-57,54c-26,14,-65,26,-117,38c54,15,93,35,114,59c21,24,32,51,32,83c0,30,-10,59,-31,88c-21,29,-48,50,-83,63c-34,13,-97,20,-188,20l-243,0l5,-15c24,0,41,-2,51,-6c10,-5,18,-11,24,-21c7,-9,14,-28,22,-56l104,-360c10,-38,16,-62,16,-75c0,-10,-5,-18,-13,-25c-9,-7,-27,-11,-55,-12l4,-15z m132,259c39,-1,69,-7,91,-19c23,-11,40,-31,54,-58c13,-27,20,-52,20,-76c0,-22,-7,-41,-21,-55c-14,-14,-32,-21,-55,-20l-24,1l-65,227z m-9,32l-75,261c14,1,25,1,32,1c64,0,108,-18,133,-54c25,-36,37,-74,37,-115c0,-20,-5,-37,-14,-53c-10,-15,-22,-25,-37,-31c-15,-6,-41,-9,-76,-9z"/>
		<path d="M3086,6308l-43,186l-15,0c-2,-51,-15,-89,-38,-114c-23,-25,-53,-38,-90,-38c-40,0,-80,17,-120,51c-40,34,-74,86,-101,156c-23,56,-34,112,-34,168c0,49,12,87,37,113c24,26,58,39,100,39c34,0,66,-7,94,-22c28,-15,57,-39,86,-73l21,0c-36,54,-71,91,-108,113c-36,21,-80,32,-133,32c-70,0,-127,-21,-170,-64c-43,-43,-64,-98,-64,-167c0,-64,17,-126,51,-184c35,-59,84,-106,148,-142c64,-36,128,-54,192,-54c24,0,54,5,90,15c18,5,31,7,38,7c15,0,29,-7,44,-22l15,0z"/>
	</g>
</svg>
